<svg xmlns="http://www.w3.org/2000/svg" width="254" height="102" viewBox="-16 -16 254 102" overflow="visible"><path fill="#F24D29" d="M0 50h222v2H0zM9.502 38.11V24.942h7.553v13.35c0 4.067-2.254 7.706-7.675 7.706H8.162C2.314 45.998 0 42.906 0 37.565V8.193C0 3.46 2.314.001 8.101.001H9.38c5.36 0 7.675 2.913 7.675 7.342v11.956H9.502V7.586c0-.728-.122-1.152-.792-1.152-.548 0-.792.363-.792 1.152V38.11c0 .85.244 1.275.792 1.275.67 0 .792-.547.792-1.275M36.971 37.262c0 5.643-3.106 8.737-8.162 8.737H27.53c-5.36 0-8.223-3.155-8.223-8.737V8.922C19.307 3.338 21.743 0 27.53 0h1.218c5.787 0 8.223 3.52 8.223 8.922v28.34zm-7.919-29.19c0-.911-.305-1.336-.913-1.336-.549 0-.853.425-.853 1.336v29.856c0 .79.304 1.214.853 1.214.608 0 .913-.425.913-1.214V8.072zM39.406.425h8.832l1.341 21.907L50.918.425h8.588v45.151H53.05V20.329l-2.253 25.247h-2.742l-2.314-25.247v25.247h-6.335zM62.125.425h11.694c3.106 0 5.116 1.578 5.116 5.705v10.195c0 3.034-2.01 4.43-2.985 4.733 1.218.303 3.594 1.639 3.594 5.28v12.379c0 4.553-1.949 6.859-5.785 6.859H62.125V.425zm7.734 5.705v12.865h.549c.608 0 .913-.364.913-1.153V7.222c0-.789-.121-1.092-.913-1.092h-.549zm0 18.448v15.111h.731c.792 0 .913-.365.913-1.153V25.792c0-.91-.182-1.214-.913-1.214h-.731zM90.567 37.442h-2.619l-.426 8.133h-6.639L84.659.425h9.746l4.08 45.15h-7.491l-.427-8.133zm-1.279-23.788l-.913 17.174h1.827l-.914-17.174zM101.104 7.344h-3.472V.426h14.556v6.918h-3.471v38.231h-7.613z"/><path fill="#008AC6" d="M123.394 46c-5.055 0-7.552-2.306-7.552-6.979V27.188h7.552v11.287c0 .79.245 1.214.793 1.214.549 0 .853-.425.853-1.274v-8.799c0-1.458-.183-2.064-1.34-3.095l-3.958-3.399c-2.621-2.183-3.716-4.673-3.716-8.071v-8.01c0-4.188 2.193-7.04 7.734-7.04h1.766c5.545 0 7.311 2.792 7.311 6.433v9.952h-7.433V6.797c0-.667-.243-.971-.791-.971-.547 0-.792.304-.792.971v7.707c0 1.214.245 1.64 1.219 2.549l3.897 3.398c3.044 2.549 4.204 4.551 4.204 8.557v8.98c0 4.855-2.376 8.011-7.979 8.011h-1.768zM138.195 7.344h-3.472V.426h14.557v6.918h-3.472v38.231h-7.613zM159.024 45.576h-7.735V.425h12c2.678 0 4.812 1.699 4.812 5.401v10.62c0 3.095-1.463 4.31-2.742 4.854 1.279.546 2.863 1.821 2.863 4.187v17.902c0 .911.122 1.58.366 2.003v.184h-7.613c-.307-.426-.489-1.033-.489-1.882V26.762c0-.667-.122-1.032-.853-1.032h-.608v19.846zm0-26.278h.608c.549 0 .853-.364.853-1.032V7.162c0-.729-.122-1.032-.792-1.032h-.67v13.168zM183.389.425v6.918h-5.484v10.985h4.629v7.159h-4.629v13.049h5.665v7.04h-13.216V.425zM192.949 46c-5.055 0-7.553-2.306-7.553-6.979V27.188h7.553v11.287c0 .79.245 1.214.792 1.214.548 0 .853-.425.853-1.274v-8.799c0-1.458-.181-2.064-1.34-3.095l-3.959-3.399c-2.619-2.183-3.716-4.673-3.716-8.071v-8.01c0-4.188 2.193-7.04 7.736-7.04h1.768c5.54 0 7.307 2.792 7.307 6.433v9.952h-7.43V6.797c0-.667-.245-.971-.792-.971-.549 0-.792.304-.792.971v7.707c0 1.214.243 1.64 1.217 2.549l3.899 3.398c3.044 2.549 4.201 4.551 4.201 8.557v8.98c0 4.855-2.374 8.011-7.979 8.011h-1.765zM212.257 46c-5.059 0-7.554-2.306-7.554-6.979V27.188h7.554v11.287c0 .79.241 1.214.789 1.214.549 0 .853-.425.853-1.274v-8.799c0-1.458-.183-2.064-1.34-3.095l-3.958-3.399c-2.619-2.183-3.714-4.673-3.714-8.071v-8.01c0-4.188 2.191-7.04 7.734-7.04h1.766c5.543 0 7.309 2.792 7.309 6.433v9.952h-7.431V6.797c0-.667-.245-.971-.791-.971-.549 0-.792.304-.792.971v7.707c0 1.214.243 1.64 1.217 2.549l3.899 3.398C220.843 23 222 25.002 222 29.008v8.98c0 4.855-2.374 8.011-7.979 8.011h-1.764z"/><path fill="#E6411E" d="M105.939 59.323h-1.27v-3.005h3.015v2.219c0 1.592-.492 2.989-.704 3.52h-1.783c.295-.707.606-1.788.742-2.734"/><path fill="#F24D29" d="M12.54 71h-.489c-2.798 0-4.017-1.555-4.017-4.129v-6.784C8.034 57.495 9.232 56 12.03 56h.489c2.803 0 4.016 1.513 4.016 4.087v6.784c0 2.614-1.272 4.129-3.995 4.129m-.252-12.348c-.766 0-1.119.433-1.119 1.476v6.743c0 .962.373 1.455 1.119 1.455.745 0 1.117-.493 1.117-1.455v-6.743c0-1.043-.393-1.476-1.117-1.476M18.065 70.802V56.177h5.189c1.898 0 2.92.885 2.92 2.85v1.357c0 1.494-.705 2.221-1.511 2.516.861.333 1.511 1.004 1.511 2.438v3.853c0 .708.096 1.2.231 1.513v.1h-3.014c-.137-.217-.251-.63-.251-1.476v-3.459c0-.924-.298-1.315-1.058-1.315h-.981v6.25h-3.036zm3.997-8.649c.762 0 1.079-.413 1.079-1.258v-1.258c0-.884-.278-1.217-1.079-1.217h-.96v3.734h.96zM33.952 56.177l1.429 10.456 1.41-10.456h2.959l-2.451 14.625h-3.952l-2.545-14.625zM47.745 58.83h-3.816v3.067h3.212v2.714h-3.212v3.497h3.936v2.694h-6.931V56.177h6.811zM48.867 58.83v-2.653h7.697v2.653h-2.331v11.972h-3.036V58.83zM64.652 58.83h-3.816v3.067h3.213v2.714h-3.213v3.497h3.938v2.694h-6.932V56.177h6.81zM66.102 70.802V56.177h5.19c1.897 0 2.919.885 2.919 2.85v1.357c0 1.494-.706 2.221-1.511 2.516.861.333 1.511 1.004 1.511 2.438v3.853c0 .708.096 1.2.231 1.513v.1h-3.016c-.135-.217-.25-.63-.25-1.476v-3.459c0-.924-.297-1.315-1.059-1.315h-.982v6.25h-3.033zm3.998-8.649c.759 0 1.078-.413 1.078-1.258v-1.258c0-.884-.277-1.217-1.078-1.217h-.963v3.734h.963zM78.49 68.364l-.373 2.438h-2.682l2.392-14.625h3.95l2.568 14.625H81.37l-.373-2.438H78.49zm2.135-2.458l-.433-2.85c-.232-1.571-.373-2.673-.448-3.537-.08.864-.237 1.983-.453 3.537l-.428 2.85h1.762zM91.312 65.181c-.06-.944-.082-1.67-.082-3.559v-5.445h2.607v14.625H91.17l-2.292-6.644c-.407-1.201-.684-2.144-.86-2.872.081.767.116 1.771.116 3.559v5.957h-2.623V56.177h2.995l1.958 6.094c.414 1.335.67 2.141.848 2.91M95.192 67.813v-2.221h2.974v1.79c0 .727.354 1.081 1.079 1.081.684 0 1.036-.41 1.036-1.258v-.158c0-.924-.332-1.355-1.097-1.984l-1.918-1.554c-1.274-1.002-1.958-2.023-1.958-3.716v-.411c0-2.261 1.294-3.381 3.876-3.381h.453c2.562 0 3.7 1.042 3.7 2.985v1.71h-2.939v-1.237c0-.785-.292-1.119-.977-1.119-.704 0-1.037.292-1.037 1.061v.098c0 .786.292 1.18 1.057 1.809l1.918 1.573c1.41 1.199 2.133 2.062 2.133 3.949v.417c0 2.08-1.136 3.733-4.011 3.733h-.474c-2.601-.001-3.815-1.201-3.815-3.167M115.332 70.802l-1.293-6.428c-.414-1.985-.644-3.263-.821-4.443.056 1.435.056 2.792.056 4.836v6.035h-2.562V56.177h3.877l.96 5.07c.292 1.553.429 2.499.564 3.421.141-.922.276-1.846.568-3.421l.98-5.07h3.782v14.625h-2.628v-6.035c0-2.024.04-3.361.101-4.836-.217 1.159-.454 2.417-.841 4.363l-1.334 6.508h-1.409zM129.874 58.83h-3.82v3.067h3.211v2.714h-3.211v3.497h3.935v2.694h-6.931V56.177h6.816zM137.117 65.181c-.056-.944-.076-1.67-.076-3.559v-5.445h2.603v14.625h-2.662l-2.291-6.644c-.414-1.201-.684-2.144-.861-2.872.075.767.117 1.771.117 3.559v5.957h-2.623V56.177h2.994l1.957 6.094c.415 1.335.667 2.141.842 2.91M140.933 58.83v-2.653h7.696v2.653h-2.33v11.972h-3.034V58.83zM151.722 68.364l-.375 2.438h-2.682l2.392-14.625h3.955l2.567 14.625H154.6l-.374-2.438h-2.504zm2.135-2.458l-.43-2.85c-.237-1.571-.372-2.673-.454-3.537-.075.864-.232 1.983-.447 3.537l-.433 2.85h1.764zM161.844 67.989h3.428v2.812h-6.524V56.178h3.096zM173.3 56.177V61.7h2.176v-5.523h3.109v14.625h-3.109v-6.114H173.3v6.114h-3.115V56.177zM186.992 58.83h-3.816v3.067h3.212v2.714h-3.212v3.497h3.935v2.694h-6.929V56.177h6.81zM191.12 68.364l-.372 2.438h-2.685l2.392-14.625h3.955l2.569 14.625h-2.98l-.372-2.438h-2.507zm2.133-2.458l-.427-2.85c-.237-1.571-.372-2.673-.453-3.537-.076.864-.231 1.983-.447 3.537l-.432 2.85h1.759zM201.242 67.989h3.428v2.812h-6.524V56.178h3.096zM204.624 58.83v-2.653h7.697v2.653h-2.33v11.972h-3.036V58.83zM216.711 56.177V61.7h2.175v-5.523H222v14.625h-3.114v-6.114h-2.175v6.114H213.6V56.177zM6.795 56.177v2.653H2.996v3.067h3.191v2.714H2.996v6.191H0V56.177z"/></svg>