<svg id="Layer_1" data-name="Layer 1" xmlns="http://www.w3.org/2000/svg" viewBox="0 0 500 100"><defs><style>.cls-1{fill:#82102e;}</style></defs><path class="cls-1" d="M56,70.75V68.94l.75-.75-.36-1.1.36-1.5c-.4-4.62-.88-7.31-1.46-8.07L56,49.76l-.35-1.1v-.35l.74-2.21L56,45c.18-1.73.55-2.6,1.1-2.6L56,35.79l.75-1.85-.36-3.31.36-7a5.34,5.34,0,0,0-3.66-1.85l-1.85.4-1.5-.4c-1.94.35-2.91.84-2.91,1.5l-7-.39h-.35a45.6,45.6,0,0,1,1.1,10.31,9.48,9.48,0,0,0-2.25,5.55v.36l.75,5.9v2.56a4.3,4.3,0,0,1-1.1,2.6v.35q1.5.87,2.2,5.51v.4q-1.45.82-1.45,8.46v3.31l-.4.35q-.83,4.8-2.55,4.8c0,1.24-.37,1.85-1.11,1.85v.71c1,.13,1.46.5,1.46,1.11l3.7-1.11a8.27,8.27,0,0,0,4.41,1.85l3-.74H48l.35.39V77l2.21.74a12.23,12.23,0,0,0,4.8-.74l2.21.39h1.1c.58-1.23,1.19-1.85,1.85-1.85V74.8L60.08,73C57.63,72.27,56.28,71.53,56,70.75Z"/><path class="cls-1" d="M69.29,21.77H63.78l-3.31.75.35,1.85-.74,1.46v.39l.39.36c1.7,0,2.56.73,2.56,2.2q3.3,1.74,3.3,8.47l-.7.74c.47,2.71,1.07,4.06,1.81,4.06h1.85l1.49-5.91L70,34.69a10.32,10.32,0,0,1,1.11-5.16A16.58,16.58,0,0,0,69.29,21.77Z"/><path class="cls-1" d="M32.09,21.42l-2.56.35-3-.35c-2.2,0-3.3.37-3.3,1.1.42,2.94.9,4.41,1.45,4.41L24.37,28v.4l.35.35-.35,5.16.35,2.2v.36l-.35.39q.87,5.16,2.2,5.16h1.11c1.73,0,2.59-2.46,2.59-7.36a7.28,7.28,0,0,0,2.21-5.55v-.71l3.66-2.21Q35.71,21.42,32.09,21.42Z"/><path class="cls-1" d="M96.69,28.23a8.17,8.17,0,0,0,4.29-5,1.71,1.71,0,0,0-1.42-1.81q-6.74,1.81-9,3.23l-2.12-.36-3.58,2.52q0,2.84-3.23,2.84c0,1.2-.49,1.81-1.46,1.81l.36,3.23-1.07,1.06q-.7,7.59-2.16,10.79l.35,4.64a7,7,0,0,1-1.41,3.23l.35,1.81q2.52,3.08,2.52,3.94A10.67,10.67,0,0,1,80.9,64.8q2.4,6.38,10.43,10.39Q97,76.3,98.5,77.71q1.41,0,1.41-3.93-5.35-6.3-5.35-7.92V64.09L95.27,63V56.57L96,54.41,95.27,53l.35-.39V51.18l-.71-1.06V49L95.62,48v-.71l-.71-.7.36-1.82-.71-2.16.71-2.48v-.35l-.36-.4c0-.58.48-.93,1.42-1.06L96,35.75V32.52Z"/><path class="cls-1" d="M125.74,46.14Q122.67,31.82,120,31.81q0-2-2.52-5.35c-2.1,0-3.41-.25-3.94-.75q0-2.4-6.45-3.58l-2.87.71h-1.07l-.35,1.81V25q3.58,2.37,3.58,5V31.1L106,32.88l1.41,2.51L106,40.79l2.16,4.64-.35,2.88a4.5,4.5,0,0,0-2.17,3.58q0,3.22,2.17,9.68l-.4,3.59v.7l.4.4c-.71.18-1.32,1.61-1.81,4.29q-4.29,2.2-4.29,6.1l.35,1.06a4.47,4.47,0,0,0,3.23-1.81q7.32,0,9.68-3.58,7.52-3.34,7.52-10.39c1,0,1.84-1.2,2.52-3.58l-.35-3.23q0-5.86,1.41-8.58Z"/><path class="cls-1" d="M178.18,36.42l-.71-3q0-6.22-8-8.74A6.37,6.37,0,0,0,165,21.42q-3.78.46-4.77,1.46l-2.91-.71-1.1,1.06v2.21q6.21,4.61,6.22,8c0,.91-.74,1.9-2.21,3l.75,6.22v1.81q-1.45,5.79-4,7.68l.7,1.45-1.06,2.21c.47,0,.71.36.71,1.1q5,0,13.15-4,8.77-6,8.78-8.42l-1.46-6.93Z"/><path class="cls-1" d="M153.69,72.24l.39-8.78v-.35l-2.2-4.06c.47-.15,1-1.24,1.45-3.26l-.35-.36V53.58l.35-.35-1.1-1.85.75-2.17-.75-1.45.75-3.31-.39-2.21.39-1.1.35-.35c0-2.36.25-3.82.75-4.37q-1,0-1.49-11.69l.39-2.21v-.35h-1.85l-2.16.71-13.55-1.11-2.2.4h-.36l-.35-.4-2.2,2.56a3.78,3.78,0,0,0,2.55,1.46q1.47,4,2.92,4.05v4l-.71,2.91v.36l.35.39-.35,2.17.35,2.55v.4l-.35.35h.35l-.35,2.92.35,1.45-.75,2.56.75,1.46-1.1,5.51v.35l2.21,4-.75,2.91v1.1l1.1,3.67v1.45l-1.81,3c-2.94.24-4.41.84-4.41,1.82s2.19,1.75,6.57,2.2l2.56-1.46h3.66l7.33,1.81c.7-.55,2.78-1.15,6.22-1.81h.35l-1.1-3A4,4,0,0,1,153.69,72.24Z"/><path class="cls-1" d="M251.32,26.1c1.65,0,4.05,2.07,7.2,6.18q2.64,0,3.62,9l3.27.35c.4,0,.88-.84,1.46-2.52v-.35l-.4-.35,1.11-4.73V32.64l-1.46-4v-.35l.35-.39-.35-3.23.35-1.46c-.55-1.21-1.14-1.81-1.77-1.81l-2.2.35-2.17,2.52h-2.16a8.71,8.71,0,0,0-4.33-1.77l-3.62.36h-.71l-.36-.36-.39.36h-.35Q248.41,24.77,251.32,26.1Z"/><path class="cls-1" d="M263.6,47.44a2.34,2.34,0,0,1-2.52,1.81H260l-3.62-.71-5.79.71h-2.16l-1.82,1.81v.75q5.08,1.65,5.08,5.39L251,59.76l.36.36v4.33l-.36.35c.48,0,.71,1.21.71,3.62v1.11l-.35,2.52c-3.15,1.15-4.73,2.48-4.73,4,0,1,1,1.55,2.92,1.81l9-2.52a11,11,0,0,1,5.79-3.26c1.71,0,2.56-1.57,2.56-4.69l-.4-1.1V65.9l.4-.35-.4-2.91A8.73,8.73,0,0,1,267.58,58l-.36-2.56,1.46-3.58V50.35A5.16,5.16,0,0,0,263.6,47.44Z"/><path class="cls-1" d="M241.56,21.42q-4.69.46-5.44,1.1l.36,2.52-4,.71a27.48,27.48,0,0,1-5.43,6.89q-1.06,1.94-3.62,11.22v3.58l-.71,1.1v3.63l.71,1.06-.36,3.27v.35l.36.35c-.42,0-.66.61-.71,1.82v.39q3.15,3.15,3.62,4.68l-.35.36,3.22,6.14q3.27,2.84,3.27,3.62l8.66,2.91c2.42,0,3.62-1,3.62-2.91-.13-.76-1.09-1.72-2.87-2.87l.35-1.46q0-4.92-2.16-7.6l.35-1.1-.35-5V50.71l1.06-3.27-.35-.35V44.57l.35-1.46-.71-6.49.71-1.46-.71-3.27.36-.35c1.1-3.55,2.42-6,4-7.25V22.52h-2.16Z"/><path class="cls-1" d="M300.29,25.75l-.35-2.17c-1.21-.55-1.81-1.15-1.81-1.81H296l-.39-.35c0,.34-1.32.58-3.94.71l-4-.36-.35.36a82.62,82.62,0,0,0-12.6,1.45v.36l.36,2.52q4,2.09,4,4.68l-.71,5,.71,2.17-1.45,5.74c.49,0,.74.61.74,1.82v.7L278,47l.35.35v5l.71,4.33v.36l-.35.35.71,6.1c-.48,0-.71.61-.71,1.81l.35,3.23-1.45,3.27L274,73.93v.75a6.29,6.29,0,0,0,4.69,2.17h2.16l2.52-1.46a12,12,0,0,1,4.65,1.46l4.68-1.1a12.4,12.4,0,0,0,5.4,2.16l2.16-4c-2.39-1.91-3.58-3.11-3.58-3.58l.35-2.16V65.67l-2.16-8.62,2.16-5-.71-1.46V44.09l.36-2.51q-1.81,0-1.81-5.75l.35-1.1-.35-1.07L296,31.5v-.36l-.39-.35.74-2.52C296.35,26.59,297.67,25.75,300.29,25.75Z"/><path class="cls-1" d="M343.28,61.1,341.82,60h-.71c-1.23,0-2,.48-2.2,1.45-.84,4.6-2.3,6.89-4.37,6.89,0,1.24-.37,1.85-1.1,1.85L328,72.05c-1.54,0-2.65,1.45-3.3,4.37,0,.57,2.67,1.06,8,1.45l3.27-.75,3.26.4,1.46-1.1,2.91.35.75-.71-1.81-9.49Z"/><path class="cls-1" d="M325.45,68.78a41.12,41.12,0,0,1,5.82-13.5c0-2.66,1.46-5.08,4.37-7.29V45.47l1.1-4.76q2.17-1.7,5.08-9.8l-.35-2.56q1.26,0,1.81-4.37,0-1.21-6.18-1.46l-4.37,1.1a12.05,12.05,0,0,1-5.12-1.1l-4,2.56c-.49,4-1,6.34-1.45,6.89v.39l.35.36q-4,6-4,9.84l-8,16,.35,1.81L308,67.32q-3.66,2.91-3.66,3.62h.39L304,72.75c0,2.44.6,3.67,1.81,3.67l1.46-.36h3.31l10.19,1.46,1.81-.4V75.31Q324.23,68.91,325.45,68.78Z"/><path class="cls-1" d="M307.22,39.65,308,37.8q4.36-2.56,4.37-5.83l4.72-4c2.68,0,4-1.45,4-4.37v-.39l-6.18-.35h-2.21l-4.37-1.46a3.43,3.43,0,0,0-3.27,1.81v1.85a7.91,7.91,0,0,0,1.46,3.62v.36l-1.1,2.56V32l.35.39-.71,2.17.36,2.56-.71,1.45Q304.7,39,307.22,39.65Z"/><path class="cls-1" d="M370.48,68.78a41.33,41.33,0,0,1,5.83-13.5c0-2.66,1.45-5.08,4.37-7.29V45.47l1.1-4.76q2.16-1.7,5.08-9.8l-.36-2.56c.84,0,1.45-1.46,1.81-4.37q0-1.21-6.18-1.46l-4.37,1.1a12,12,0,0,1-5.11-1.1l-4,2.56c-.5,4-1,6.34-1.46,6.89v.39l.36.36q-4,6-4,9.84l-8,16,.36,1.81L353,67.32q-3.66,2.91-3.66,3.62h.4L349,72.75c0,2.44.6,3.67,1.81,3.67l1.45-.36h3.31l10.2,1.46,1.81-.4V75.31Q369.27,68.91,370.48,68.78Z"/><path class="cls-1" d="M388.31,61.1,386.86,60h-.71c-1.23,0-2,.48-2.2,1.45-.84,4.6-2.3,6.89-4.37,6.89,0,1.24-.37,1.85-1.11,1.85L373,72.05c-1.55,0-2.65,1.45-3.31,4.37,0,.57,2.68,1.06,8,1.45l3.27-.75,3.27.4,1.46-1.1,2.91.35.75-.71-1.81-9.49Z"/><path class="cls-1" d="M352.25,39.65,353,37.8c2.92-1.71,4.37-3.65,4.37-5.83l4.73-4c2.67,0,4-1.45,4-4.37v-.39l-6.18-.35h-2.2l-4.37-1.46a3.43,3.43,0,0,0-3.27,1.81v1.85a7.8,7.8,0,0,0,1.46,3.62v.36l-1.11,2.56V32l.36.39-.71,2.17.35,2.56-.7,1.45C349.74,38.86,350.57,39.23,352.25,39.65Z"/><path class="cls-1" d="M420.36,25.75,420,23.58c-1.2-.55-1.81-1.15-1.81-1.81h-2.12l-.4-.35c0,.34-1.31.58-3.93.71l-4-.36-.35.36a82.46,82.46,0,0,0-12.6,1.45v.36l.35,2.52q4,2.09,4,4.68l-.71,5,.71,2.17-1.46,5.74c.5,0,.75.61.75,1.82v.7l-.35.36.35.35v5l.71,4.33v.36l-.35.35.7,6.1c-.47,0-.7.61-.7,1.81l.35,3.23-1.46,3.27-3.58,2.12v.75a6.29,6.29,0,0,0,4.69,2.17H401l2.52-1.46a12,12,0,0,1,4.65,1.46l4.68-1.1a12.41,12.41,0,0,0,5.39,2.16l2.17-4c-2.39-1.91-3.58-3.11-3.58-3.58l.35-2.16V65.67L415,57.05l2.16-5-.71-1.46V44.09l.36-2.51q-1.81,0-1.81-5.75l.35-1.1L415,33.66l1.1-2.16v-.36l-.4-.35.75-2.52Q416.42,25.75,420.36,25.75Z"/><path class="cls-1" d="M470.08,21.77h-5.51l-3.31.75.35,1.85-.74,1.46v.39l.39.36c1.71,0,2.56.73,2.56,2.2,2.2,1.16,3.31,4,3.31,8.47l-.71.74c.47,2.71,1.07,4.06,1.81,4.06h1.85l1.49-5.91-.74-1.45a10.32,10.32,0,0,1,1.1-5.16A16.58,16.58,0,0,0,470.08,21.77Z"/><path class="cls-1" d="M456.81,70.75V68.94l.75-.75-.35-1.1.35-1.5q-.58-6.93-1.46-8.07l.71-7.76-.35-1.1v-.35l.75-2.21-.4-1.1c.19-1.73.55-2.6,1.1-2.6l-1.1-6.61.75-1.85-.35-3.31.35-7a5.3,5.3,0,0,0-3.66-1.85l-1.85.4-1.5-.4c-1.94.35-2.91.84-2.91,1.5l-7-.39h-.35a45.6,45.6,0,0,1,1.1,10.31,9.52,9.52,0,0,0-2.24,5.55v.36l.75,5.9v2.56a4.26,4.26,0,0,1-1.11,2.6v.35c1,.58,1.73,2.42,2.21,5.51v.4q-1.46.82-1.46,8.46v3.31l-.39.35c-.55,3.2-1.41,4.8-2.56,4.8,0,1.24-.37,1.85-1.1,1.85v.71c1,.13,1.45.5,1.45,1.11l3.7-1.11A8.27,8.27,0,0,0,445,77.75L448,77h.75l.36.39V77l2.2.74a12.23,12.23,0,0,0,4.8-.74l2.21.39h1.1c.58-1.23,1.19-1.85,1.85-1.85V74.8L460.87,73C458.43,72.27,457.07,71.53,456.81,70.75Z"/><path class="cls-1" d="M432.88,21.42l-2.56.35-2.95-.35c-2.21,0-3.31.37-3.31,1.1.42,2.94.9,4.41,1.46,4.41l-.36,1.1v.4l.36.35-.36,5.16.36,2.2v.36l-.36.39c.58,3.44,1.31,5.16,2.21,5.16h1.1c1.73,0,2.6-2.46,2.6-7.36a7.28,7.28,0,0,0,2.2-5.55v-.71l3.66-2.21Q436.5,21.42,432.88,21.42Z"/><path class="cls-1" d="M497.12,29.73l.32-1.11L497.12,26a6.47,6.47,0,0,1,.79-2.37,4.27,4.27,0,0,0-1.1-2.2v-.31l.47-.48v-.15H497v-.16a1.73,1.73,0,0,0,.63-1.1l-.16-1.26.16-.16c-.32-.11-.48-.42-.48-1,0-1.57.14-2.36.32-2.36L497,12.72l.15-.94v-.16q0-.48-2-.63v-.16a6.37,6.37,0,0,0-1.14.16l-.79-.08-1.06.16h-.2l-.16-.16a1.66,1.66,0,0,0-.67.35l-.2,0h-.51l-2.56-.08H487l-.28,0h-1v.2l-4.14.16L479.37,11v.15a8.73,8.73,0,0,1-2,.17h-.13a6.2,6.2,0,0,1-1.41-.23v.71h-.2a12.81,12.81,0,0,0-3.94-.95l-1.73.47h-.47l-2.68-.47H466a3.2,3.2,0,0,1-2.37.63,9.33,9.33,0,0,0-3.15-.47l-.27.47h-.08c-1.05,0-1.58-.13-1.58-.32l-1.25.16-3-.16-3.15.64-2.2-.64-2.36.32-.16-.16h-.16l-1.26.48-2.67-.48-1.11.32-.15-.16h-.16l-1.1.32-3.31-.64-1.1.48h-1.74c-1.15-.16-1.73-.37-1.73-.63-.94.1-1.41.26-1.41.47a3.78,3.78,0,0,1-1.89-.47c-2.21.1-3.31.26-3.31.47l-.47-.32-1,.32h-.47l-.43-.28v.4h-.12l-.79-.16-.94.16h-.63l-2-.32-1.73.32h-1.58l-1.41.47-2.21-.47h-.16l-1.41.16-2.21-.63-1.89.47H404.3l-.16-.16-.16.16h-.63l-1.42.16-4.72-.48-.47.16-.47-.16-.63.16h-.16l-.16-.16-.23,0v-.16a10.39,10.39,0,0,0-1.74-.23l-.63.16h-1.26l-1.26.47-2-.47-.48.15c-1.36-.1-2-.26-2-.47l-.79.16-.63-.16a4.41,4.41,0,0,1-3,.79l-.32-.32h-.15l-.63.16-.63-.31-1.26.31-2.52-.47-1.1.63-.95-.32-.16.16h-.15l-1.58-.16-1.42.48a5.14,5.14,0,0,0-2.83-.63l-1.42.31a3.94,3.94,0,0,1-1.73-.31l-1.73.15h-1.42l-.16-.15-1.26.31-.63-.16-.47.16-.94-.47-2.52.47-3.15-.16a12.46,12.46,0,0,0-2.05.16v-.24a10.1,10.1,0,0,0-1.73-.23l-.63.16h-1.26l-1.26.47-2.05-.47-.47.15c-1.37-.1-2-.26-2-.47l-.79.16-.63-.16a4.39,4.39,0,0,1-3,.79l-.31-.32h-.16l-.63.16-.63-.31-1.26.31-2.52-.47-1.1.63-.95-.32-.15.16h-.16l-1.58-.16-1.41.48a5.17,5.17,0,0,0-2.84-.63l-1.41.31a4,4,0,0,1-1.74-.31l-1.73.15h-1.42l-.15-.15-1.26.31-.63-.16-.47.16-.95-.47-2.52.47-3.15-.16a11.55,11.55,0,0,0-2.36.22v0l-.63.16h-.51c-.11-.07-.22-.15-.32-.2v.08l-.11.12h-.32l-.79-.16-.94.16h-.63l-2.05-.32-1.73.32h-1.58l-1.41.47-2.21-.47h-.16l-1.41.16-2.21-.63-1.89.47h-1.57l-.16-.16-.16.16h-.63l-1.41.16-4.73-.48-.47.16-.47-.16-.63.16h-.16l-.16-.16-.71.1V11.3l-3.26-.51-2.36.63-2.52-.31-1.89.31-1.11-.16-.15.16h-.16l-.63-.16-.47.16-.48-.16-4.72.48-1.42-.16h-.63l-.15-.16-.16.16h-1.58L251,11.11l-2.2.63-1.42-.16h-.15l-2.21.47-1.42-.47H242l-1.73-.32-2,.32h-.63l-1-.16-.78.16h-.32l-.15-.16-.16.16h-.63L231.91,11c-3.15.13-4.72.39-4.72.79l-.63-.32-.16.16h-.16c-.18-.21-1.28-.37-3.3-.47a1.51,1.51,0,0,0-.74.26.39.39,0,0,1-.09-.26h-.42v.31h-.41l-.41-.47a12.29,12.29,0,0,0-3.16.79H217a12.74,12.74,0,0,1-3.71-1.11,9.88,9.88,0,0,1-4,.63L208,11a6.62,6.62,0,0,1-2.47.47v-.16l-1.38.63-3.57-.78h-1l-1,.15c0-.15-.19-.31-.55-.47l-.14.16h-.14l-.82-.16c-2.11.32-3.16.58-3.16.79h-.55l-.14-.16H193c-.09.32-.36.47-.82.47h-.55a10.22,10.22,0,0,0-3.44-.94l-1.51.47h-.41L183.9,11h-.68a2.14,2.14,0,0,1-1.53.6l-.21-.13-.15.15h-.18a5.58,5.58,0,0,0-.85-.24.38.38,0,0,1-.08-.23h-.47v.1c-.23,0-.49,0-.74-.06l-.2-.2a15.82,15.82,0,0,0-3.63.79h-.78a16.26,16.26,0,0,1-4.26-1.11,12.81,12.81,0,0,1-4.56.63L164,11a8.53,8.53,0,0,1-2.83.47v-.16l-1.58.63-4.09-.78h-1.1l-1.1.15c0-.15-.21-.31-.63-.47l-.16.16h-.16l-.94-.16c-2.42.32-3.63.58-3.63.79h-.63l-.15-.16h-.16c-.11.32-.42.47-1,.47h-.63a12.83,12.83,0,0,0-3.93-.94l-1.73.47h-.48L136.45,11h-.79a3.19,3.19,0,0,1-2.36.63,9.19,9.19,0,0,0-2.87-.45l-.16-.1-.79.47-.79-.16-.63.16-1.1-.16-2.52.32L121.76,11l-2.2.31-1-.16h-2.52l-1.41-.47-1.11.32-.47-.16-1.1.31h-.16l-.15-.15-2.21.47-.63-.16-1.57.32-1.89-.48h-.48l-1.26.32-.15-.16-1.42.16-.63-.32-.63.32H99.09L97.83,11h-.16l-.16.15L95,10.55l-1.57.79H92l-1.57-.16-.32.32-.31-.32-1.89.16H86.33l-.78.16L85.07,11l-1.41.47L83,11.34h-.16l-.16.16L81.77,11,80,11.34l-1.1-.16-1.61.47v-.19h-.63l-.16-.16h-.16c-.1.32-.42.48-.94.48H74.8a12.9,12.9,0,0,0-3.94-.95l-1.73.47h-.47L66,10.83h-.79a3.16,3.16,0,0,1-2.36.63A9.33,9.33,0,0,0,59.68,11l-.27.47h-.08c-1,0-1.58-.13-1.58-.32l-1.26.16-3-.16-3.15.64-2.2-.64-2.36.32-.16-.16h-.16l-1.26.48-2.68-.48-1.1.32-.16-.16h-.15L39,11.78l-3.3-.64-1.11.48H32.87c-1.15-.16-1.73-.37-1.73-.63-.94.1-1.42.26-1.42.47A3.78,3.78,0,0,1,27.83,11c-2.2.1-3.3.26-3.3.47l-.32-.21v-.18a6,6,0,0,1-1.8.25l-.21-.14v.13a9.05,9.05,0,0,1-1.57-.17V11l-2.17.63-4.13-.16v-.2h-1l-.28,0h-.82l-2.56.08H9.13l-.19,0a1.66,1.66,0,0,0-.67-.35l-.16.16h-.2l-1.06-.16L6.06,11a6.37,6.37,0,0,0-1.14-.16V11q-2,.15-2,.63v.16l.15.94-.47,1.73c.18,0,.29.79.32,2.36,0,.53-.16.84-.48,1l.16.16L2.4,19.18A1.73,1.73,0,0,0,3,20.28v.16H2.72v.15l.47.48v.31a4.27,4.27,0,0,0-1.1,2.2A6.47,6.47,0,0,1,2.88,26l-.32,2.67.32,1.11v2.2l-.63,3v.47a5.27,5.27,0,0,0,1.1,2.21,9.49,9.49,0,0,0-.47,3.31L3,44.06l-.47,2.52.47.94L2.88,48l.15.63-.31,1.26.16.16v1.42l-.16,1.73A3.94,3.94,0,0,1,3,54.92l-.31,1.42a5.14,5.14,0,0,0,.63,2.83l-.47,1.42L3,62.16v.16l-.15.16.31.94-.63,1.11L3,67.05l-.31,1.26.31.63-.15.63v.15l.31.32a4.43,4.43,0,0,1-.79,3l.16.63-.16.79q.31,0,.48,2L2.72,77l.47,2-.47,1.26v1.26l-.16.63c.13,1.58.34,2.36.63,2.36l-.43,3,2.67.15v.44l1.42.31.28-.24,1.34.08,5.23-.51h0a.38.38,0,0,1,.24.36h.51V88l.12-.12H15l1.73.47a19.7,19.7,0,0,0,4.06-.78h.9l.47,0v.08h.49c.38.06.82.16,1.33.29v-.3l1.1.14.94-.16q.63,0,.63.48a17.75,17.75,0,0,0,3.78-.79l2.52.63h.63l2.2-.16.48.16a10.68,10.68,0,0,1,2.83-.47h.79l1.26.31h.47l2.84-.47.94.31h.16l.16-.15,2.2.15h.47l.79-.15.16.15,1.26-.15.47.15.63-.15a4.57,4.57,0,0,0,2.2.94,4.7,4.7,0,0,1,2-.63v.16l1.26-.16c.32,0,.47.11.47.32l1.42-.32h.16c.21.5.92.75,2.12.75L64.72,88a2.23,2.23,0,0,0,1.42.47h.63c.52,0,.84-.16.94-.47l4.41.47,3.31-.94.59.18v.92l.71-.16.16.16,1.41-.16.63.32.63-.32h1.73l1.26.47h.16l.16-.15,2.52.63L87,88.66h1.42l1.57.16.32-.32.31.32,1.89-.16h1.58l.79-.16.47.47,1.42-.47.63.16h.15l.16-.16,1,.47,1.73-.31,1.1.16,2.2-.63,4.41.63.16-.16.79.16.94-.16,2.36.31a10.09,10.09,0,0,0,2.84-.47h.16a1.77,1.77,0,0,0,1.1.47h.47a2.71,2.71,0,0,0,1.89-.94l1.89.31.63-.15.63.15h1.26a2.83,2.83,0,0,0,1.42.63l1.26-.15H126l.16.15.79-.47.94.47.95-.31a2.21,2.21,0,0,0,1.42.47h.47l.43-.16v-.61a7.51,7.51,0,0,0,2.88-.45h.15l.16.16.63-.32c0,.4,1.57.66,4.72.79l2.68-.63H143l.16.16.16-.16h.31l.79.16.94-.16H146l2.05.31,1.73-.31h1.58l1.41-.47,2.21.47h.16l1.41-.16,2.21.63,1.89-.47h1.57l.16.16.16-.16h.63l1.41-.16,4.73.47.47-.15.47.15.63-.15h.16l.16.15,1.1-.15,1.89.31,2.52-.31,2.36.63,4.88-.79h.12v-.17h.1c.29-.42,1-.63,2.2-.63l3,.31.14-.15h.13a6.14,6.14,0,0,0,2.2.63l1-.32.83.16c1.28-.1,1.92-.37,1.92-.79a3,3,0,0,0,2.2,1,29.6,29.6,0,0,1,5.36-.48l1.1.48h.41a1.75,1.75,0,0,0,1.24-.48l.82.32.83-.47.69.47.13-.16h.14l1.1.16a2.33,2.33,0,0,0,1.24-.63h1.1l.55-.16.55.16,1.64-.32a2.28,2.28,0,0,0,1.65.95h.42a1.53,1.53,0,0,0,1-.47h.14a8,8,0,0,0,2.47.47l1-.15a2.13,2.13,0,0,0,2.07,1l2.36-.63h.63l2.83-.32,1.74.32.94-.16,4.73.79h.78c.29-.42,1.81-.63,4.57-.63h1.89l1.42.16c1.47-.16,2.2-.32,2.2-.48l3.15.32,1.1-.32a5.78,5.78,0,0,0,2.84.48h.15l1.58-.48h1.26l2,.63h1.89l.63-.15.15.15,2.36-.15,3.94.47,4.21-.84v.52a2.35,2.35,0,0,0,1.44-.55l.45,0v-.43l1.89.31.63-.15.63.15h1.26a2.83,2.83,0,0,0,1.42.63l1.26-.15h.16l.15.15.79-.47.95.47.94-.31a2.23,2.23,0,0,0,1.42.47h.47l1.26-.47a39.87,39.87,0,0,1,6.14.47,3.67,3.67,0,0,0,2.52-.94c0,.42.74.68,2.21.78l.94-.15,1.1.31a7.69,7.69,0,0,0,2.52-.63h.16l.16.16,1.18-.12v-.12H305q1.74.24,1.74.63c.94-.1,1.41-.26,1.41-.47a3.78,3.78,0,0,1,1.89.47c2.21-.1,3.31-.26,3.31-.47l.47.31.95-.31h.47l.47.31h.79l1.73.16.16-.16h.16l1.41.16h1.26l2.68-.63c1.47.11,2.2.42,2.2,1l.95-.32.47.16,1-.32.94.16a4.3,4.3,0,0,0,1.89-.47h3.31l2.2.47,2.52-.31,2.84.15,3.3-.47q0,.44,2.37.63l.63-.16h1.25l.08,0v-.44h.23c1.15.16,1.73.37,1.73.63,1-.1,1.42-.26,1.42-.47a3.78,3.78,0,0,1,1.89.47c2.2-.1,3.31-.26,3.31-.47l.47.31.94-.31h.48l.47.31h.79l1.73.16.16-.16h.15l1.42.16h1.26l2.68-.63c1.47.11,2.2.42,2.2,1l1-.32.47.16.94-.32.95.16a4.4,4.4,0,0,0,1.89-.47h3.3l2.21.47,2.52-.31,2.83.15,3.31-.47c0,.29.79.5,2.36.63l.63-.16h1.26l.08,0v-.81l1.76.29.63-.15.63.15h1.26a2.83,2.83,0,0,0,1.42.63l1.26-.15H402l.16.15.79-.47.94.47.95-.31a2.23,2.23,0,0,0,1.42.47h.47L408,88a39.87,39.87,0,0,1,6.14.47,3.67,3.67,0,0,0,2.52-.94c0,.42.73.68,2.2.78l.95-.15,1.1.31a7.69,7.69,0,0,0,2.52-.63h.16l.16.16,1.18-.12v-.25l1,.13.94-.16q.63,0,.63.48a17.75,17.75,0,0,0,3.78-.79l2.52.63h.63l2.21-.16.47.16a10.68,10.68,0,0,1,2.83-.47h.79l1.26.31h.47l2.84-.47.94.31h.16l.16-.15,2.2.15h.47l.79-.15.16.15,1.26-.15.47.15.63-.15a4.57,4.57,0,0,0,2.21.94,4.61,4.61,0,0,1,2-.63v.16l1.26-.16c.32,0,.48.11.48.32l1.41-.32h.16q.32.75,2.13.75l3.3-.47a2.25,2.25,0,0,0,1.42.47h.63c.52,0,.84-.16.94-.47l4.41.47,3.07-.88v.29l.78-.18,1.35.42v-.62h1.06a19.7,19.7,0,0,0,4.06.78l1.73-.47h.43l.12.12v.2H486a.38.38,0,0,1,.24-.36h0l5.23.51,1.34-.08.28.24,1.42-.31v-.44l2.67-.15-.43-3c.29,0,.5-.78.63-2.36l-.16-.63V80.27L496.81,79l.47-2-.16-.48q.17-2,.48-2l-.16-.79.16-.63a4.43,4.43,0,0,1-.79-3l.31-.32v-.15l-.15-.63.31-.63L497,67.05l.47-2.52-.63-1.11.31-.94-.15-.16v-.16l.15-1.57-.47-1.42a5.14,5.14,0,0,0,.63-2.83L497,54.92a3.94,3.94,0,0,1,.31-1.73l-.16-1.73V50l.16-.16L497,48.62l.15-.63-.15-.47.47-.94L497,44.06l.15-3.15a9.49,9.49,0,0,0-.47-3.31,5.27,5.27,0,0,0,1.1-2.21v-.47l-.63-3Zm-4.88,38.89-.15.16.47,5.67-.16.63.47,1.89-.15,1.73.15,1.26-.47,2.2.16,1.22-2.09-.27-2.12.15-.91-.15-.83.12-.23,0L482.52,83a13.08,13.08,0,0,0-3.19.47h-.16a2.22,2.22,0,0,0-1.26-.47h-.51a2.82,2.82,0,0,0-1.26.33,1.19,1.19,0,0,1-.55-.29h-.79l-4.72.79-.95-.16-1.73.31-2.83-.31h-.63L461.58,83a3.92,3.92,0,0,0-.63,0h-.24l-.95.16L458,82.71c0,.19-.78.29-2.36.32-.53,0-.84-.16-.94-.47l-.16.15-1.26-.15a1.71,1.71,0,0,0-1.1.63h-.16v-.32h-.16l-.47.47h-.32a4.23,4.23,0,0,0-2.2-1.1,6.24,6.24,0,0,1-2.36.79l-2.68-.32-1.1.32h-2.21l-3-.63h-.47a5.46,5.46,0,0,0-2.21,1.1,9.7,9.7,0,0,0-3.3-.47l-3.15.16-2.52-.48-1,.48-.07,0V83l-.35.05h-.05l-.24.06-.46.08L423,83v.37a5.25,5.25,0,0,0-1.81.57h-.63c-.53,0-.84-.15-.95-.47h-.16l-.15.16h-.63c0-.21-1.21-.47-3.63-.79l-.94.16h-.16l-.16-.16c-.42.16-.63.32-.63.47l-1.1-.15H411l-4.09.78-1.58-.63v.16a8.53,8.53,0,0,1-2.83-.47l-1.58.31a12.81,12.81,0,0,1-4.56-.63c-1.11.39-2,.67-2.76.86l-.67-.15-2.68.32-.94-.32h-.79l-1.26.32-.47-.32h-.32v.16l-3.62-.31-2.52.47a4,4,0,0,0-1.89-.47,3.6,3.6,0,0,1-1.73.47l-4.88-.79-2.36.63-2.52-.31L365,83.5l-1.1-.16-.16.16h-.16l-.63-.16-.47.16-.47-.16-4.73.48-1.41-.16h-.63l-.16-.16-.16.16h-1.57l-1.89-.47-1.87.53-1.75-.38-2.68.32-.95-.32h-.78l-1.26.32-.48-.32h-.31v.16l-3.62-.31-2.52.47a4,4,0,0,0-1.89-.47,3.66,3.66,0,0,1-1.73.47l-4.89-.79-2.36.63-2.52-.31L320,83.5l-1.1-.16-.16.16h-.15l-.63-.16-.48.16-.47-.16-4.72.48-1.42-.16h-.63l-.16-.16-.15.16h-1.58l-1.89-.47-1.61.46V83a11.32,11.32,0,0,0-3.7.9h-.63c-.53,0-.84-.15-.95-.47h-.16l-.15.16h-.63c0-.21-1.21-.47-3.62-.79L294,83h-.16l-.15-.16c-.42.16-.63.32-.63.47L292,83.11h-1.1l-4.09.78-1.58-.63v.16a8.57,8.57,0,0,1-2.83-.47l-1.58.31a12.81,12.81,0,0,1-4.56-.63,31.58,31.58,0,0,1-3.06.93l-2.1-.45-.16.15h-.15L269.66,83l-.47.16-1.1-.32-1.42.47h-2.52l-.94.16L261,83.11l-2.67.63-2.52-.32-1.11.16-.63-.16-.78.16-.79-.47-.79.47a4.71,4.71,0,0,1-2.36-.63l-2.36.31L245.57,83l-.47.47h-.47l-.48-.47-.63.16-.94-.16-2.05.47v-.16l-2.52.79-3.3-.94-4.41.47c-.11-.32-.42-.47-1-.47h-.63a2.19,2.19,0,0,0-1.42.47l-1.83-.26v-.38l-.07.08a1.91,1.91,0,0,0-.89.16l-.51-.07h-.41l-.39-.26-.13.16h-.28c-.46,0-.68-.16-.68-.48h-.42v.32h-.41l-.41-.47a12.25,12.25,0,0,0-3.16.78H217a12.6,12.6,0,0,1-3.71-1.1,9.88,9.88,0,0,1-4,.63L208,82.39a6.62,6.62,0,0,1-2.47.47V82.7l-1.38.63-3.57-.79h-1l-1,.16c0-.16-.19-.31-.55-.47l-.14.16h-.14l-.82-.16c-2.11.31-3.16.58-3.16.79h-.55l-.14-.16H193c-.09.31-.36.47-.82.47h-.55a10.22,10.22,0,0,0-3.44-.94l-1.51.47h-.41l-2.34-.47h-.68a2.56,2.56,0,0,1-2.07.63,7.14,7.14,0,0,0-2.74-.48l-.47.94a5.27,5.27,0,0,1-1.69.34l-2.68-.63h-1.26l-1.42.15h-.15l-.16-.15-1.73.15h-.79l-.47.32h-.48l-.94-.32-.47.32c0-.21-1.11-.37-3.31-.47a3.89,3.89,0,0,1-1.89.47c0-.21-.47-.37-1.42-.47,0,.26-.57.47-1.73.63h-1.73l-1.1-.48-3.31.63-1.1-.31H150l-.16.16-1.1-.32L146,84l-1.26-.47h-.15l-.16.16-2.36-.32-2.21.63-3.15-.63-3,.16-1.26-.16c0,.19-.52.29-1.57.32h-1.11l-.31.31v0l-.16-.07v.16a8.53,8.53,0,0,1-2.83-.47l-1.58.31a12.81,12.81,0,0,1-4.56-.63,16.26,16.26,0,0,1-4.26,1.11h-.78a15.86,15.86,0,0,0-3.62-.79l-.48.47h-.47v-.31h-.47c0,.31-.27.47-.79.47h-.31l-.16-.16-.79.47h-.47a1.83,1.83,0,0,0-1.26-.31l-.79-.79-4.41,1.1h-.16l-2-.94-.16.16H97.51c-.15,0-.31.21-.47.63l-3.46-.48a6.58,6.58,0,0,1-2.21.32A2.74,2.74,0,0,1,90,83.78l-.94.47h-.79l-1.73-.16-1.89.47c-1.34-.29-2.13-.6-2.36-.94l-.79.47A3.42,3.42,0,0,1,79.09,83a2.48,2.48,0,0,0-1.26.79l-.51.11v-.31c-1.47-.11-2.31-.3-2.52-.59H74l-4.72.79-1-.16-1.73.31-2.83-.31h-.63L60.78,83a4.09,4.09,0,0,0-.63,0h-.23l-1,.16-1.73-.48c0,.19-.79.29-2.36.32-.53,0-.84-.16-1-.47l-.15.15-1.26-.15a1.73,1.73,0,0,0-1.11.63h-.15v-.32H51.1l-.47.47h-.32a4.23,4.23,0,0,0-2.2-1.1,6.3,6.3,0,0,1-2.36.79l-2.68-.32L42,83H39.76l-3-.63H36.3a5.41,5.41,0,0,0-2.21,1.1,9.7,9.7,0,0,0-3.3-.47l-3.15.16-2.52-.48-.95.48L23.7,83l-.28.07A2.63,2.63,0,0,0,22.6,83h-.51a2.22,2.22,0,0,0-1.26.47h-.16A13.08,13.08,0,0,0,17.48,83l-3.86.31-.23,0-.83-.12-.91.15-2.12-.15-2.09.27.16-1.22L7.13,80l.15-1.26L7.13,77l.47-1.89-.16-.63.47-5.67-.15-.16.15-1.1-.15-.63A2.08,2.08,0,0,1,7,65.63c.29-1,.5-1.58.63-1.58l-.16-1.41a3.14,3.14,0,0,0,.47-1.58v-.63l-.31-.94.16-1.26-.32-2,.63-1.73a33,33,0,0,1-.63-6.14v-.16L7.6,48l-.16-.16.16-1.25-.16-.95c0-.42.16-.63.47-.63a17.52,17.52,0,0,0-.78-3.78l.63-2.52v-.63l-.16-2.2.16-.48a10.68,10.68,0,0,1-.48-2.83v-.79l.32-1.26V30l-.47-2.83.31-.95V26.1L7.28,26l.16-2.21v-.47l-.16-.79.16-.15-.16-1.26.16-.48L7.28,20a4.52,4.52,0,0,0,1-2.2,2.71,2.71,0,0,1-.47-1.18h.15l2.6-.24c2.34-.08,3.61-.1,3.82-.08a24,24,0,0,1,2.48-.15l1.81.07h.55c.61,0,1.26,0,2-.07l1.46.31L23.66,16l.55.27V15.7l1.42-.15,1.42.16h.63l.15.16.16-.16h1.58l1.89.47,2.2-.63,1.42.16h.15l2.21-.47,1.42.47h1.57l1.73.32,2.05-.32h.63l.95.16.78-.16h.32l.15.16.16-.16h.63l2.68.63c3.15-.13,4.72-.39,4.72-.79l.63.32.16-.16h.16c.18.21,1.28.37,3.3.47a.54.54,0,0,0,.2,0l.32.2a17.85,17.85,0,0,0,3.78-.47h.47l.16.16.94-.32.63.47h.31q.52-.63,2.52-.63l3.47.32.16-.16h.15a7.69,7.69,0,0,0,2.52.63l.91-.26v.1l.46-.11.68.11h.16v-.31l1.77-.43h.16l2,.94.16-.16h1.42c.16,0,.31-.21.47-.63l3.47.48a6.48,6.48,0,0,1,2.2-.32,2.72,2.72,0,0,1,1.42.47l.94-.47h.79l1.73.16,1.89-.47c1.34.29,2.13.6,2.36.94l.79-.47a3.42,3.42,0,0,1,2.36,1.1,2.48,2.48,0,0,0,1.26-.79c1.79-.39,2.68-.71,2.68-.94l1.26.31.16-.15h.15l1,.31,1.73-.16,4.72.95,3.94-.47,2.36.15.16-.15.63.15h1.89l2-.63h1.26l1.57.48h.16a13.82,13.82,0,0,0,1.41-.08l.83.47a18.34,18.34,0,0,0,3.78-.47h.47l.16.15.95-.31.63.47h.31q.51-.63,2.52-.63l3.47.32.15-.16h.16a7.69,7.69,0,0,0,2.52.63l1.1-.32.95.16c1.47-.1,2.2-.36,2.2-.79a3.68,3.68,0,0,0,2.52,1,38.66,38.66,0,0,1,6.14-.47l1.26.47h.47a2.23,2.23,0,0,0,1.42-.47l1,.31.94-.47.79.47.16-.16h.15l1.26.16a2.83,2.83,0,0,0,1.42-.63h1.26l.63-.16.63.16,1.89-.31a2.71,2.71,0,0,0,1.89.94h.47a1.83,1.83,0,0,0,1.1-.47h.16a10.47,10.47,0,0,0,2.84.47l.22,0,.28.19a21.59,21.59,0,0,0,2.76-.32h0l.79-.15.16.15h.1l.06,0,.94-.13.37.31h.28c.29-.42,1-.63,2.2-.63l3,.32.14-.16h.13a6.14,6.14,0,0,0,2.2.63l1-.32.83.16c1.28-.1,1.92-.36,1.92-.79a3,3,0,0,0,2.2,1,29.6,29.6,0,0,1,5.36-.47l1.1.47h.41a1.79,1.79,0,0,0,1.24-.47l.82.31.83-.47.69.47.13-.16h.14l1.1.16a2.33,2.33,0,0,0,1.24-.63h1.1l.55-.16.55.16,1.64-.31a2.27,2.27,0,0,0,1.65.94h.42a1.53,1.53,0,0,0,1-.47h.14a8,8,0,0,0,2.47.47l2.06-.31.82.15.69-.15.14.15.56-.09s.08.06.08.09l1.26-.15,3,.15,3.15-.63,2.2.63,2.36-.31.16.16H237l1.26-.48,2.68.48,1.1-.32.16.16h.15l1.11-.32,3.3.63,1.11-.47h1.73c1.15.16,1.73.37,1.73.63.94-.1,1.42-.26,1.42-.47a3.89,3.89,0,0,1,1.89.47c2.2-.1,3.3-.26,3.3-.47l.47.31.95-.31h.47l.47.31H261l1.73.16.16-.16h.16l1.42.16h1.26l2.67-.63c1.47.11,2.21.42,2.21,1l.94-.32.47.16.62-.21.21.05h1.26l1.42-.16h.16l.15.16,1.74-.16h.78l.48-.31h.47l.94.31.47-.31c0,.21,1.11.37,3.31.47a3.89,3.89,0,0,1,1.89-.47c0,.21.47.37,1.42.47,0-.26.58-.47,1.73-.63h1.73l1.1.47,3.31-.63,1.1.32h.16l.16-.16,1.1.32,2.68-.48,1.26.48h.16l.15-.16,1.26.17v0l.58,0,.53.07.15,0h.32l2.52-.63a17.52,17.52,0,0,0,3.78.78c0-.31.21-.47.63-.47l.94.16,1.26-.16.16.16.16-.16h.15a32.49,32.49,0,0,1,6.14.63l1.74-.63,2,.32,1.26-.16.95.31h.63a3,3,0,0,0,1.57-.47l1.42.16c0-.13.52-.34,1.57-.63a2.08,2.08,0,0,1,1.26.79l.63.15,1.11-.15.15.15,5.67-.47.63.16,1.89-.47,1.73.15,1.26-.15,2.21.47V16l.94.08h.63l2.52-.63a17.75,17.75,0,0,0,3.78.78c0-.31.21-.47.63-.47l.95.16,1.26-.16.15.16.16-.16h.16a32.57,32.57,0,0,1,6.14.63l1.73-.63,2.05.32,1.26-.16.94.31h.63a3,3,0,0,0,1.58-.47l1.42.16c0-.13.52-.34,1.57-.63a2.08,2.08,0,0,1,1.26.79l.63.15,1.1-.15.16.15,5.67-.47.63.16,1.89-.47,1.73.15,1.26-.15,1.46.31v.43l.35.08h1.26l1.42-.16h.15l.16.16,1.73-.16h.79l.47-.31h.48l.94.31.47-.31c0,.21,1.1.37,3.31.47a3.89,3.89,0,0,1,1.89-.47c0,.21.47.37,1.42.47,0-.26.57-.47,1.73-.63h1.73l1.1.47,3.31-.63,1.1.32h.16l.16-.16,1.1.32,2.68-.48,1.26.48h.15l.16-.16,2.36.31.32-.07v-.35l1.65-.17,1.42.16h.63l.16.16.15-.16h1.58l1.89.47,2.2-.63,1.42.16H436l2.2-.47,1.42.47h1.57L443,16l2.05-.32h.63l.95.16.78-.16h.32l.16.16.15-.16h.63l2.68.63c3.15-.13,4.73-.39,4.73-.79l.63.32.15-.16H457c.18.21,1.29.37,3.31.47a.54.54,0,0,0,.19,0l.32.2a17.85,17.85,0,0,0,3.78-.47H465l.16.16.94-.32.63.47h.32q.51-.63,2.52-.63l3.46.32.16-.16h.16a7.53,7.53,0,0,0,2.52.63l.8-.23.69.31,1.46-.31c.71.05,1.36.07,2,.07h.55l1.81-.07a24,24,0,0,1,2.48.15c.21,0,1.48,0,3.82.08l2.6.24h.15a2.71,2.71,0,0,1-.47,1.18,4.52,4.52,0,0,0,1,2.2l-.16.63.16.48-.16,1.26.16.15-.16.79v.47l.16,2.21-.16.15v.16l.31.95L492.4,30v.47l.32,1.26v.79a10.68,10.68,0,0,1-.48,2.83l.16.48-.16,2.2v.63l.63,2.52a17.52,17.52,0,0,0-.78,3.78c.31,0,.47.21.47.63l-.16.95.16,1.25-.16.16.16.16v.16a33,33,0,0,1-.63,6.14l.63,1.73-.32,2,.16,1.26-.31.94v.63a3.14,3.14,0,0,0,.47,1.58l-.16,1.41c.13,0,.34.53.63,1.58a2.08,2.08,0,0,1-.79,1.26l-.15.63Z"/></svg>